<svg xmlns="http://www.w3.org/2000/svg" xmlns:xlink="http://www.w3.org/1999/xlink" viewBox="0 0 74.06 74.07"><defs><style>.cls-1{fill:url(#radial-gradient);}.cls-2{fill:url(#radial-gradient-2);}</style><radialGradient id="radial-gradient" cx="37.03" cy="37.03" r="37.03" gradientTransform="translate(0.31 -0.31) rotate(0.48)" gradientUnits="userSpaceOnUse"><stop offset="0.86" stop-color="#303030"/><stop offset="0.87" stop-color="#343435"/><stop offset="0.95" stop-color="#494749"/><stop offset="1" stop-color="#504e51"/></radialGradient><radialGradient id="radial-gradient-2" cx="37.03" cy="37.03" r="24.13" gradientUnits="userSpaceOnUse"><stop offset="0" stop-color="#fff"/><stop offset="0.06" stop-color="#f8f8f8"/><stop offset="0.17" stop-color="#f0f0f0"/><stop offset="0.63" stop-color="#f0f0f0"/><stop offset="0.7" stop-color="#f0f0f0"/><stop offset="0.85" stop-color="#eee"/><stop offset="0.9" stop-color="#e7e7e7"/><stop offset="0.93" stop-color="#dcdcdc"/><stop offset="0.96" stop-color="#cbcbcb"/><stop offset="0.99" stop-color="#b5b5b5"/><stop offset="1" stop-color="#a8a8a8"/></radialGradient></defs><g id="Layer_2" data-name="Layer 2"><g id="Layer_1-2" data-name="Layer 1"><ellipse class="cls-1" cx="37.03" cy="37.03" rx="37.03" ry="37.03" transform="translate(-0.31 0.31) rotate(-0.48)"/><path class="cls-2" d="M37,61.16A24.13,24.13,0,1,1,61.16,37,24.15,24.15,0,0,1,37,61.16Z"/><path d="M27.43,18.05l6.72,11.61c1.51,2.62,4,2.62,5.47,0l6.72-11.6c.18-.17-4.06-2.74-9.45-2.74S27.26,17.89,27.43,18.05Z"/><path d="M15.92,41l13.07-3c2.94-.68,3.66-3,1.6-5.23L21.46,22.9c-.11-.23-3.82,3.08-5.39,8.23S15.72,41.09,15.92,41Z"/><path d="M34.48,58.69,35.4,45.3c.21-3-1.82-4.38-4.53-3.06L18.81,48.11c-.25,0,1.83,4.55,6.3,7.56S34.53,58.91,34.48,58.69Z"/><path d="M56.84,46.12l-12.53-4.8c-2.82-1.07-4.72.47-4.25,3.45L42.14,58c0,.25,4.89-.43,9.08-3.81S57.07,46.14,56.84,46.12Z"/><path d="M51.36,21.55,43.11,32.13c-1.85,2.38-.93,4.65,2,5.07l13.27,1.88c.23.11,1-4.8-1-9.79S51.45,21.33,51.36,21.55Z"/></g></g></svg>